# xmcd
#
# Track frame offsets: 
#        150
#        32570
#        55625
#        84072
#        109386
#        130672
#        152579
#
# Disc length: 2337 seconds
#
# Revision: 1
# Processed by: cddbd v1.5.2PL0 Copyright (c) Steve Scherf et al.
# Submitted via: ExactAudioCopy v0.99pb3
#
DISCID=46091f07
DTITLE=Count Basie - Kansas City
DYEAR=1981
DGENRE=Jazz
TTITLE0=Walking the blues
TTITLE1=Blues for little Jazz
TTITLE2=Vegas Drag
TTITLE3=Wee Baby
TTITLE4=Scooter
TTITLE5=St. Louis blues
TTITLE6=Opus Six
EXTD=YEAR: 1981
EXTT0=
EXTT1=
EXTT2=
EXTT3=
EXTT4=
EXTT5=
EXTT6=
PLAYORDER=
